<svg id="visual" viewBox="0 0 900 600" width="900" height="600" xmlns="http://www.w3.org/2000/svg" xmlns:xlink="http://www.w3.org/1999/xlink" version="1.1"><rect x="0" y="0" width="900" height="600" fill="#212121"></rect><path d="M0 280L18.8 272.8C37.7 265.7 75.3 251.3 112.8 257.5C150.3 263.7 187.7 290.3 225.2 295C262.7 299.7 300.3 282.3 337.8 282.3C375.3 282.3 412.7 299.7 450.2 302.8C487.7 306 525.3 295 562.8 292.2C600.3 289.3 637.7 294.7 675.2 295C712.7 295.3 750.3 290.7 787.8 280C825.3 269.3 862.7 252.7 881.3 244.3L900 236L900 601L881.3 601C862.7 601 825.3 601 787.8 601C750.3 601 712.7 601 675.2 601C637.7 601 600.3 601 562.8 601C525.3 601 487.7 601 450.2 601C412.7 601 375.3 601 337.8 601C300.3 601 262.7 601 225.2 601C187.7 601 150.3 601 112.8 601C75.3 601 37.7 601 18.8 601L0 601Z" fill="#860ebb"></path><path d="M0 335L18.8 339.5C37.7 344 75.3 353 112.8 354.8C150.3 356.7 187.7 351.3 225.2 345.8C262.7 340.3 300.3 334.7 337.8 339.5C375.3 344.3 412.7 359.7 450.2 357.3C487.7 355 525.3 335 562.8 326.2C600.3 317.3 637.7 319.7 675.2 318.5C712.7 317.3 750.3 312.7 787.8 310.8C825.3 309 862.7 310 881.3 310.5L900 311L900 601L881.3 601C862.7 601 825.3 601 787.8 601C750.3 601 712.7 601 675.2 601C637.7 601 600.3 601 562.8 601C525.3 601 487.7 601 450.2 601C412.7 601 375.3 601 337.8 601C300.3 601 262.7 601 225.2 601C187.7 601 150.3 601 112.8 601C75.3 601 37.7 601 18.8 601L0 601Z" fill="#831acb"></path><path d="M0 434L18.8 422.7C37.7 411.3 75.3 388.7 112.8 379C150.3 369.3 187.7 372.7 225.2 378.7C262.7 384.7 300.3 393.3 337.8 391.2C375.3 389 412.7 376 450.2 379.7C487.7 383.3 525.3 403.7 562.8 410.8C600.3 418 637.7 412 675.2 408.2C712.7 404.3 750.3 402.7 787.8 398C825.3 393.3 862.7 385.7 881.3 381.8L900 378L900 601L881.3 601C862.7 601 825.3 601 787.8 601C750.3 601 712.7 601 675.2 601C637.7 601 600.3 601 562.8 601C525.3 601 487.7 601 450.2 601C412.7 601 375.3 601 337.8 601C300.3 601 262.7 601 225.2 601C187.7 601 150.3 601 112.8 601C75.3 601 37.7 601 18.8 601L0 601Z" fill="#7d24dc"></path><path d="M0 479L18.8 477.5C37.7 476 75.3 473 112.8 472.5C150.3 472 187.7 474 225.2 475.8C262.7 477.7 300.3 479.3 337.8 471.7C375.3 464 412.7 447 450.2 444.2C487.7 441.3 525.3 452.7 562.8 455.7C600.3 458.7 637.7 453.3 675.2 451.5C712.7 449.7 750.3 451.3 787.8 451.8C825.3 452.3 862.7 451.7 881.3 451.3L900 451L900 601L881.3 601C862.7 601 825.3 601 787.8 601C750.3 601 712.7 601 675.2 601C637.7 601 600.3 601 562.8 601C525.3 601 487.7 601 450.2 601C412.7 601 375.3 601 337.8 601C300.3 601 262.7 601 225.2 601C187.7 601 150.3 601 112.8 601C75.3 601 37.7 601 18.8 601L0 601Z" fill="#742eed"></path><path d="M0 535L18.8 535.5C37.7 536 75.3 537 112.8 537.5C150.3 538 187.7 538 225.2 536.8C262.7 535.7 300.3 533.3 337.8 528.7C375.3 524 412.7 517 450.2 517C487.7 517 525.3 524 562.8 524C600.3 524 637.7 517 675.2 517.2C712.7 517.3 750.3 524.7 787.8 529.3C825.3 534 862.7 536 881.3 537L900 538L900 601L881.3 601C862.7 601 825.3 601 787.8 601C750.3 601 712.7 601 675.2 601C637.7 601 600.3 601 562.8 601C525.3 601 487.7 601 450.2 601C412.7 601 375.3 601 337.8 601C300.3 601 262.7 601 225.2 601C187.7 601 150.3 601 112.8 601C75.3 601 37.7 601 18.8 601L0 601Z" fill="#6638ff"></path></svg>