<svg id="visual" viewBox="0 0 900 600" width="900" height="600" xmlns="http://www.w3.org/2000/svg" xmlns:xlink="http://www.w3.org/1999/xlink" version="1.1"><rect x="0" y="0" width="900" height="600" fill="#212121"></rect><path d="M0 418L129 449L257 451L386 415L514 398L643 443L771 413L900 431L900 601L771 601L643 601L514 601L386 601L257 601L129 601L0 601Z" fill="#860ebb"></path><path d="M0 479L129 464L257 446L386 446L514 484L643 485L771 431L900 444L900 601L771 601L643 601L514 601L386 601L257 601L129 601L0 601Z" fill="#8918c8"></path><path d="M0 515L129 477L257 505L386 485L514 517L643 487L771 500L900 483L900 601L771 601L643 601L514 601L386 601L257 601L129 601L0 601Z" fill="#8a20d5"></path><path d="M0 514L129 500L257 508L386 537L514 505L643 496L771 539L900 508L900 601L771 601L643 601L514 601L386 601L257 601L129 601L0 601Z" fill="#8c28e3"></path><path d="M0 553L129 548L257 534L386 557L514 548L643 553L771 534L900 545L900 601L771 601L643 601L514 601L386 601L257 601L129 601L0 601Z" fill="#8c30f1"></path><path d="M0 574L129 573L257 566L386 558L514 556L643 561L771 578L900 552L900 601L771 601L643 601L514 601L386 601L257 601L129 601L0 601Z" fill="#8c38ff"></path></svg>